<svg width="922" height="148" viewBox="0 0 922 148" fill="none" xmlns="http://www.w3.org/2000/svg">
<g clip-path="url(#clip0_3_20)">
<path d="M896.89 87.79L921.22 52.12H903.8L887.63 76.87L871.17 52.12H853.06L877.26 87.38L852.78 122.63H870.34L886.66 98.3L903.25 122.63H921.5L896.89 87.79Z" fill="white"/>
<path d="M843.31 52.12H827.55V122.63H843.31V52.12Z" fill="white"/>
<path d="M835.43 22.68C829.91 22.68 825.43 27.16 825.43 32.68C825.43 38.2 829.91 42.68 835.43 42.68C840.95 42.68 845.43 38.2 845.43 32.68C845.43 27.16 840.95 22.68 835.43 22.68Z" fill="white"/>
<path d="M789.53 50.46C779.71 50.46 771.14 55.3 766.58 61.8C762.02 53.92 753.86 50.46 745.98 50.46C737.68 50.46 730.08 54.33 726.07 60.41V52.11H710.86V122.62H726.62V80.31C726.62 70.08 733.67 64.69 741.28 64.69C748.89 64.69 754.83 69.25 754.83 80.04V122.62H770.59V80.31C770.59 70.08 777.5 64.69 785.11 64.69C792.72 64.69 798.66 69.25 798.66 80.04V122.62H814.42V77.27C814.42 58.19 801.84 50.45 789.53 50.45V50.46Z" fill="white"/>
<path d="M665.1 50.46C644.36 50.46 630.4 65.53 630.4 87.38C630.4 109.23 644.36 124.3 665.1 124.3C685.84 124.3 699.8 109.23 699.8 87.38C699.8 65.53 685.83 50.46 665.1 50.46ZM665.1 110.33C653.49 110.33 646.43 100.93 646.43 87.38C646.43 73.83 653.48 64.43 665.1 64.43C676.72 64.43 683.77 73.83 683.77 87.38C683.77 100.93 676.72 110.33 665.1 110.33Z" fill="white"/>
<path d="M581.89 109.22C564.88 109.22 554.1 94.56 554.1 73.96C554.1 53.36 565.16 38.7 581.89 38.7C596.13 38.7 603.6 47.13 606.36 57.09H622.81C620.04 38.84 606.22 23.63 581.88 23.63C555.47 23.63 537.22 44.37 537.22 73.96C537.22 103.55 556.02 124.29 581.88 124.29C607.74 124.29 621.42 105.76 623.08 90.69H606.49C604.97 98.85 597.09 109.22 581.88 109.22H581.89Z" fill="white"/>
<path d="M526.43 22.12H510.67V122.64H526.43V22.12Z" fill="white"/>
<path d="M468.77 50.46C451.49 50.46 441.39 60.14 439.32 71.61H454.25C455.77 67.19 460.06 63.45 468.22 63.45C476.38 63.45 482.05 67.6 482.05 75.89V79.9H464.91C447.35 79.9 436.57 88.2 436.57 102.16C436.57 116.12 447.35 124.28 461.04 124.28C470.16 124.28 477.91 120.82 482.89 114.6V122.62H497.55V76.16C497.55 59.71 486.07 50.44 468.79 50.44L468.77 50.46ZM482.04 96.09C482.04 105.63 473.88 111.44 464.48 111.44C457.43 111.44 452.45 107.98 452.45 101.62C452.45 95.26 457.98 91.8 466 91.8H482.04V96.09Z" fill="white"/>
<path d="M397.13 50.46C386.48 50.46 379.43 55.16 375.84 60.41V22.12H360.08V122.64H375.29V113.93C378.47 119.46 385.8 124.3 396.72 124.3C413.45 124.3 428.38 111.58 428.38 87.38C428.38 63.18 413.59 50.46 397.13 50.46ZM394.09 110.33C382.89 110.33 375.42 101.48 375.42 87.66V87.11C375.42 73.28 382.89 64.44 394.09 64.44C405.29 64.44 412.48 73.7 412.48 87.39C412.48 101.08 405.15 110.34 394.09 110.34V110.33Z" fill="white"/>
<path d="M315.66 50.46C294.92 50.46 280.96 65.53 280.96 87.38C280.96 109.23 294.92 124.3 315.66 124.3C336.4 124.3 350.36 109.23 350.36 87.38C350.36 65.53 336.4 50.46 315.66 50.46ZM315.66 110.33C304.05 110.33 296.99 100.93 296.99 87.38C296.99 73.83 304.04 64.43 315.66 64.43C327.28 64.43 334.33 73.83 334.33 87.38C334.33 100.93 327.28 110.33 315.66 110.33Z" fill="white"/>
<path d="M271.13 22.12H255.37V122.64H271.13V22.12Z" fill="white"/>
<path d="M199.73 84.89H226.28V85.44C226.28 99.27 217.15 109.5 201.39 109.5C184.8 109.5 172.63 96.37 172.63 73.97C172.63 51.57 184.11 38.58 201.25 38.58C214.52 38.58 221.99 45.77 225.03 55.59H241.9C238.44 38.17 224.2 23.65 201.11 23.65C173.73 23.65 155.76 44.67 155.76 73.98C155.76 103.29 174.84 124.31 200.97 124.31C227.1 124.31 242.72 106.06 242.72 81.59V71.08H199.72V84.91L199.73 84.89Z" fill="white"/>
<path d="M73.8 46.89C82.12 46.89 89.88 50.62 95.06 57.12L107.45 47.34C99.23 37.03 86.97 31.12 73.8 31.12C50.08 31.12 30.79 50.41 30.79 74.13C30.79 97.85 50.08 117.14 73.8 117.14C97.52 117.14 116.81 97.84 116.81 74.13L116.83 69.1L76.99 69.08L76.97 85.67L98.47 85.69L98.39 85.85C93.89 95.28 84.24 101.37 73.8 101.37C58.78 101.37 46.56 89.15 46.56 74.13C46.56 59.11 58.78 46.89 73.8 46.89Z" fill="white"/>
<path d="M73.97 132.16C41.88 132.16 15.77 106.05 15.77 73.96C15.77 41.87 41.88 15.77 73.97 15.77C91.81 15.77 108.43 23.79 119.52 37.77L131.91 27.99C117.78 10.2 96.66 0 73.97 0C33.18 0 0 33.18 0 73.97C0 114.76 33.18 147.94 73.97 147.94C96.66 147.94 117.78 137.74 131.92 119.97L119.55 110.17C108.43 124.15 91.82 132.17 73.98 132.17L73.97 132.16Z" fill="white"/>
</g>
<defs>
<clipPath id="clip0_3_20">
<rect width="921.5" height="147.93" fill="white"/>
</clipPath>
</defs>
</svg>
